REM DIRINDEX 1\2\6,1\2\7,1\2\8,1\2\9,1\3\10,1\3\11,1\4\12,1\4\13,1\4\14,1\5\15,1\5\16,1\5\17
REM DIRNAME folder01,folder02,folder03,folder04,folder05,folder06,folder07,folder08,folder09,folder10,folder11,folder12,folder13,folder14,folder15,folder16,folder17
TITLE ""
FILE "1400_3_sec04_0301_0316.mp3" MP3
  TRACK 01 AUDIO
    TITLE "0:"
    INDEX 01 00:00:00
  TRACK 02 AUDIO
    TITLE "15:cjc029_5030"
    INDEX 01 00:00:15
  TRACK 03 AUDIO
    TITLE "0:"
    INDEX 01 00:02:02
  TRACK 04 AUDIO
    TITLE "17:cjc029_5031"
    INDEX 01 00:03:08
  TRACK 05 AUDIO
    TITLE "0:"
    INDEX 01 00:05:32
  TRACK 06 AUDIO
    TITLE "16:cjc029_5032"
    INDEX 01 00:05:36
  TRACK 07 AUDIO
    TITLE "0:"
    INDEX 01 00:06:47
  TRACK 08 AUDIO
    TITLE "17:cjc029_5033"
    INDEX 01 00:07:31
  TRACK 09 AUDIO
    TITLE "0:"
    INDEX 01 00:08:64
  TRACK 10 AUDIO
    TITLE "16:cjc029_5034"
    INDEX 01 00:08:70
  TRACK 11 AUDIO
    TITLE "0:"
    INDEX 01 00:10:10
  TRACK 12 AUDIO
    TITLE "17:cjc029_5035"
    INDEX 01 00:10:66
  TRACK 13 AUDIO
    TITLE "0:"
    INDEX 01 00:13:28
  TRACK 14 AUDIO
    TITLE "16:cjc029_5036"
    INDEX 01 00:13:33
  TRACK 15 AUDIO
    TITLE "0:"
    INDEX 01 00:14:47
  TRACK 16 AUDIO
    TITLE "17:cjc029_5037"
    INDEX 01 00:15:34
  TRACK 17 AUDIO
    TITLE "0:"
    INDEX 01 00:16:53
  TRACK 18 AUDIO
    TITLE "16:cjc029_5038"
    INDEX 01 00:16:61
  TRACK 19 AUDIO
    TITLE "0:"
    INDEX 01 00:18:01
  TRACK 20 AUDIO
    TITLE "17:cjc029_5039"
    INDEX 01 00:18:62
  TRACK 21 AUDIO
    TITLE "0:"
    INDEX 01 00:19:67
  TRACK 22 AUDIO
    TITLE "16:cjc029_5040"
    INDEX 01 00:20:00
  TRACK 23 AUDIO
    TITLE "0:"
    INDEX 01 00:21:11
  TRACK 24 AUDIO
    TITLE "17:cjc029_5041"
    INDEX 01 00:21:72
  TRACK 25 AUDIO
    TITLE "0:"
    INDEX 01 00:23:16
  TRACK 26 AUDIO
    TITLE "16:cjc029_5042"
    INDEX 01 00:23:28
  TRACK 27 AUDIO
    TITLE "0:"
    INDEX 01 00:24:55
  TRACK 28 AUDIO
    TITLE "17:cjc029_5043"
    INDEX 01 00:25:46
  TRACK 29 AUDIO
    TITLE "0:"
    INDEX 01 00:27:04
  TRACK 30 AUDIO
    TITLE "16:cjc029_5044"
    INDEX 01 00:27:12
  TRACK 31 AUDIO
    TITLE "0:"
    INDEX 01 00:28:29
  TRACK 32 AUDIO
    TITLE "17:cjc029_5045"
    INDEX 01 00:29:13
  TRACK 33 AUDIO
    TITLE "0:"
    INDEX 01 00:30:34
  TRACK 34 AUDIO
    TITLE "16:cjc029_5046"
    INDEX 01 00:30:40
  TRACK 35 AUDIO
    TITLE "0:"
    INDEX 01 00:31:55
  TRACK 36 AUDIO
    TITLE "17:cjc029_5047"
    INDEX 01 00:32:43
  TRACK 37 AUDIO
    TITLE "0:"
    INDEX 01 00:33:46
  TRACK 38 AUDIO
    TITLE "16:cjc029_5048"
    INDEX 01 00:33:54
  TRACK 39 AUDIO
    TITLE "0:"
    INDEX 01 00:34:55
  TRACK 40 AUDIO
    TITLE "17:cjc029_5049"
    INDEX 01 00:35:39
  TRACK 41 AUDIO
    TITLE "0:"
    INDEX 01 00:36:70
  TRACK 42 AUDIO
    TITLE "16:cjc029_5050"
    INDEX 01 00:36:74
  TRACK 43 AUDIO
    TITLE "0:"
    INDEX 01 00:38:35
  TRACK 44 AUDIO
    TITLE "17:cjc029_5051"
    INDEX 01 00:39:19
  TRACK 45 AUDIO
    TITLE "0:"
    INDEX 01 00:40:46
  TRACK 46 AUDIO
    TITLE "16:cjc029_5052"
    INDEX 01 00:40:54
  TRACK 47 AUDIO
    TITLE "0:"
    INDEX 01 00:42:02
  TRACK 48 AUDIO
    TITLE "17:cjc029_5053"
    INDEX 01 00:42:61
  TRACK 49 AUDIO
    TITLE "0:"
    INDEX 01 00:44:22
  TRACK 50 AUDIO
    TITLE "16:cjc029_5054"
    INDEX 01 00:44:28
  TRACK 51 AUDIO
    TITLE "0:"
    INDEX 01 00:45:41
  TRACK 52 AUDIO
    TITLE "17:cjc029_5055"
    INDEX 01 00:46:25
  TRACK 53 AUDIO
    TITLE "0:"
    INDEX 01 00:47:62
  TRACK 54 AUDIO
    TITLE "16:cjc029_5056"
    INDEX 01 00:47:64
  TRACK 55 AUDIO
    TITLE "0:"
    INDEX 01 00:49:21
  TRACK 56 AUDIO
    TITLE "17:cjc029_5057"
    INDEX 01 00:50:07
  TRACK 57 AUDIO
    TITLE "0:"
    INDEX 01 00:51:46
  TRACK 58 AUDIO
    TITLE "16:cjc029_5058"
    INDEX 01 00:51:52
  TRACK 59 AUDIO
    TITLE "0:"
    INDEX 01 00:52:53
  TRACK 60 AUDIO
    TITLE "17:cjc029_5059"
    INDEX 01 00:53:39
  TRACK 61 AUDIO
    TITLE "0:"
    INDEX 01 00:55:67
  TRACK 62 AUDIO
    TITLE "16:cjc029_5060"
    INDEX 01 00:55:73
  TRACK 63 AUDIO
    TITLE "0:"
    INDEX 01 00:57:13
  TRACK 64 AUDIO
    TITLE "17:cjc029_5061"
    INDEX 01 00:57:74
  TRACK 65 AUDIO
    TITLE "0:"
    INDEX 01 01:00:53
  TRACK 66 AUDIO
    TITLE "16:cjc029_5062"
    INDEX 01 01:00:59
  TRACK 67 AUDIO
    TITLE "0:"
    INDEX 01 01:02:05
